<?xml version="1.0" encoding="UTF-8" standalone="no"?>
<svg
   version="1.1"
   id="Layer_1"
   x="0px"
   y="0px"
   width="95.396px"
   height="122.88px"
   viewBox="0 0 95.396 122.88"
   enable-background="new 0 0 95.396 122.88"
   xml:space="preserve"
   sodipodi:docname="state_machine.svg"
   inkscape:version="1.3 (0e150ed6c4, 2023-07-21)"
   xmlns:inkscape="http://www.inkscape.org/namespaces/inkscape"
   xmlns:sodipodi="http://sodipodi.sourceforge.net/DTD/sodipodi-0.dtd"
   xmlns="http://www.w3.org/2000/svg"
   xmlns:svg="http://www.w3.org/2000/svg"><defs
     id="defs1" /><sodipodi:namedview
     id="namedview1"
     pagecolor="#505050"
     bordercolor="#eeeeee"
     borderopacity="1"
     inkscape:showpageshadow="0"
     inkscape:pageopacity="0"
     inkscape:pagecheckerboard="0"
     inkscape:deskcolor="#505050"
     inkscape:zoom="7.0068361"
     inkscape:cx="47.667734"
     inkscape:cy="61.582716"
     inkscape:window-width="2560"
     inkscape:window-height="1057"
     inkscape:window-x="-8"
     inkscape:window-y="-8"
     inkscape:window-maximized="1"
     inkscape:current-layer="Layer_1" /><g
     id="g1"
     style="fill:#e0e0e0;fill-opacity:1"><path
       fill-rule="evenodd"
       clip-rule="evenodd"
       d="M0,93.349l30.717,29.531l0.002-19.008H85.11v-21.05h-0.002V68.516l0.002-0.413 l-0.004-18.861L64.06,69.475l0.002,13.348h-33.34l-0.004-19.008L0,93.349L0,93.349z M95.396,29.533L64.68,0l-0.002,19.011 l-28.031,0l-0.533-0.002l-25.827,0l-0.002,1.025v25.833l0.002,23.394h3.293l17.754-17.069v-5.794l0.002-0.535V40.06h33.34 l0.004,19.006L95.396,29.533L95.396,29.533L95.396,29.533z"
       id="path1"
       style="fill:#e0e0e0;fill-opacity:1" /></g></svg>
